HIERARCHY
ROOT hips
{
  OFFSET 0 10.6860622 2.3727825e-15
  CHANNELS 6 Xposition Yposition Zposition Yrotation Xrotation Zrotation
  JOINT leftUpperLeg
  {
    OFFSET 0.6642549969 -0.9402397400000004 0
    CHANNELS 3 Yrotation Xrotation Zrotation
    JOINT leftLowerLeg
    {
      OFFSET 0 -3.997221335632195 0
      CHANNELS 3 Yrotation Xrotation Zrotation
      JOINT leftFoot
      {
        OFFSET -0.13777839790000004 -4.6145792000000005 -0.22186036399999998
        CHANNELS 3 Yrotation Xrotation Zrotation
        JOINT leftToes
        {
          OFFSET -0.03777410834999995 -0.9130806927000008 0.85230013
          CHANNELS 3 Yrotation Xrotation Zrotation
          End Site
          {
            OFFSET -0.03777410834999995 -0.9130806927000008 0.85230013
          }
        }
      }
    }
  }
  JOINT rightUpperLeg
  {
    OFFSET -0.6642778626 -0.9402397400000004 0
    CHANNELS 3 Yrotation Xrotation Zrotation
    JOINT rightLowerLeg
    {
      OFFSET 0 -3.997221452859387 0
      CHANNELS 3 Yrotation Xrotation Zrotation
      JOINT rightFoot
      {
        OFFSET 0.1377926176 -4.6145792000000005 -0.22185782299999995
        CHANNELS 3 Yrotation Xrotation Zrotation
        JOINT rightToes
        {
          OFFSET 0.037780746850000047 -0.9130806927000008 0.85230167
          CHANNELS 3 Yrotation Xrotation Zrotation
          End Site
          {
            OFFSET 0.037780746850000047 -0.9130806927000008 0.85230167
          }
        }
      }
    }
  }
  JOINT spine
  {
    OFFSET 0 0.13988381660000015 0
    CHANNELS 3 Yrotation Xrotation Zrotation
    JOINT chest
    {
      OFFSET 0 0.6191039003973773 0
      CHANNELS 3 Yrotation Xrotation Zrotation
      JOINT upperChest
      {
        OFFSET 0 0.9855186130586943 0
        CHANNELS 3 Yrotation Xrotation Zrotation
        JOINT leftShoulder
        {
          OFFSET 0.1807663869 1.5087829790000005 0
          CHANNELS 3 Yrotation Xrotation Zrotation
          JOINT leftUpperArm
          {
            OFFSET 0.5985063006419806 0 0
            CHANNELS 3 Yrotation Xrotation Zrotation
            JOINT leftLowerArm
            {
              OFFSET 2.2993332369501065 0 0
              CHANNELS 3 Yrotation Xrotation Zrotation
              JOINT leftHand
              {
                OFFSET 2.395047042602395 0 0
                CHANNELS 3 Yrotation Xrotation Zrotation
                JOINT leftIndexProximal
                {
                  OFFSET 0.5766295810000004 0.04556643899499946 0.17265095988184
                  CHANNELS 3 Yrotation Xrotation Zrotation
                  JOINT leftIndexIntermediate
                  {
                    OFFSET 0.2957229000000008 -0.019352197700001517 -0.007932640616999987
                    CHANNELS 3 Yrotation Xrotation Zrotation
                    JOINT leftIndexDistal
                    {
                      OFFSET 0.19008243099999922 -0.012484908149998475 -0.002786250786000012
                      CHANNELS 3 Yrotation Xrotation Zrotation
                      End Site
                      {
                        OFFSET 0.19008243099999922 -0.012484908149998475 -0.002786250786000012
                      }
                    }
                  }
                }
                JOINT leftMiddleProximal
                {
                  OFFSET 0.5834975091000001 0.0524350405149987 0.02204081888183999
                  CHANNELS 3 Yrotation Xrotation Zrotation
                  JOINT leftMiddleIntermediate
                  {
                    OFFSET 0.33880573540000003 -0.019871473270000717 -0.00000971183179999946
                    CHANNELS 3 Yrotation Xrotation Zrotation
                    JOINT leftMiddleDistal
                    {
                      OFFSET 0.20676022730000088 -0.012221336379999448 0.0001471936708000235
                      CHANNELS 3 Yrotation Xrotation Zrotation
                      End Site
                      {
                        OFFSET 0.20676022730000088 -0.012221336379999448 0.0001471936708000235
                      }
                    }
                  }
                }
                JOINT leftLittleProximal
                {
                  OFFSET 0.5344154683999995 -0.012880921405001189 -0.24414037221816004
                  CHANNELS 3 Yrotation Xrotation Zrotation
                  JOINT leftLittleIntermediate
                  {
                    OFFSET 0.21758961730000093 -0.011650919939999227 0.011893592810000034
                    CHANNELS 3 Yrotation Xrotation Zrotation
                    JOINT leftLittleDistal
                    {
                      OFFSET 0.1475273964999999 -0.008152365682999818 0.006001092492999946
                      CHANNELS 3 Yrotation Xrotation Zrotation
                      End Site
                      {
                        OFFSET 0.1475273964999999 -0.008152365682999818 0.006001092492999946
                      }
                    }
                  }
                }
                JOINT leftRingProximal
                {
                  OFFSET 0.5799399463000003 0.026911854694997794 -0.12150566991816003
                  CHANNELS 3 Yrotation Xrotation Zrotation
                  JOINT leftRingIntermediate
                  {
                    OFFSET 0.26167887460000006 -0.013480186499999602 0.010996293000000053
                    CHANNELS 3 Yrotation Xrotation Zrotation
                    JOINT leftRingDistal
                    {
                      OFFSET 0.17667108799999987 -0.008990287899999228 0.0055541023999999065
                      CHANNELS 3 Yrotation Xrotation Zrotation
                      End Site
                      {
                        OFFSET 0.17667108799999987 -0.008990287899999228 0.0055541023999999065
                      }
                    }
                  }
                }
                JOINT leftThumbProximal
                {
                  OFFSET 0.11018806699999972 -0.09448718900500053 0.17047963138184
                  CHANNELS 3 Yrotation Xrotation Zrotation
                  JOINT leftThumbIntermediate
                  {
                    OFFSET 0.31062601459999983 -0.08126270900000132 0.15443142000000007
                    CHANNELS 3 Yrotation Xrotation Zrotation
                    JOINT leftThumbDistal
                    {
                      OFFSET 0.21627175790000086 -0.08833193599999878 0.018771167799999988
                      CHANNELS 3 Yrotation Xrotation Zrotation
                      End Site
                      {
                        OFFSET 0.21627175790000086 -0.08833193599999878 0.018771167799999988
                      }
                    }
                  }
                }
              }
            }
          }
        }
        JOINT neck
        {
          OFFSET 0 1.5463305265074576 0
          CHANNELS 3 Yrotation Xrotation Zrotation
          JOINT head
          {
            OFFSET 0 0.8456443600000344 0
            CHANNELS 3 Yrotation Xrotation Zrotation
            JOINT leftEye
            {
              OFFSET 0.30408573140000006 0.5104519199999995 0.1276382305
              CHANNELS 3 Yrotation Xrotation Zrotation
              End Site
              {
                OFFSET 0.30408573140000006 0.5104519199999995 0.1276382305
              }
            }
            JOINT rightEye
            {
              OFFSET -0.30409491089999996 0.5104519199999995 0.1276379445
              CHANNELS 3 Yrotation Xrotation Zrotation
              End Site
              {
                OFFSET -0.30409491089999996 0.5104519199999995 0.1276379445
              }
            }
            JOINT jaw
            {
              OFFSET -3.155239131000001e-7 -0.11984121820000082 0.60178107
              CHANNELS 3 Yrotation Xrotation Zrotation
              End Site
              {
                OFFSET -3.155239131000001e-7 -0.11984121820000082 0.60178107
              }
            }
          }
        }
        JOINT rightShoulder
        {
          OFFSET -0.1807303465 1.5087829790000005 0
          CHANNELS 3 Yrotation Xrotation Zrotation
          JOINT rightUpperArm
          {
            OFFSET -0.5985063796536958 0 0
            CHANNELS 3 Yrotation Xrotation Zrotation
            JOINT rightLowerArm
            {
              OFFSET -2.2993322059002854 0 0
              CHANNELS 3 Yrotation Xrotation Zrotation
              JOINT rightHand
              {
                OFFSET -2.395045314457259 0 0
                CHANNELS 3 Yrotation Xrotation Zrotation
                JOINT rightIndexProximal
                {
                  OFFSET -0.5764487688300002 0.0441371204405987 0.17361932004999997
                  CHANNELS 3 Yrotation Xrotation Zrotation
                  JOINT rightIndexIntermediate
                  {
                    OFFSET -0.29573011380000047 -0.01934826376999843 -0.007698921482999974
                    CHANNELS 3 Yrotation Xrotation Zrotation
                    JOINT rightIndexDistal
                    {
                      OFFSET -0.19008373999999884 -0.012503266380000655 -0.0026365778999999897
                      CHANNELS 3 Yrotation Xrotation Zrotation
                      End Site
                      {
                        OFFSET -0.19008373999999884 -0.012503266380000655 -0.0026365778999999897
                      }
                    }
                  }
                }
                JOINT rightMiddleProximal
                {
                  OFFSET -0.5834852037300005 0.05211639405060153 0.02307162440000001
                  CHANNELS 3 Yrotation Xrotation Zrotation
                  JOINT rightMiddleIntermediate
                  {
                    OFFSET -0.33880114510000003 -0.019952774050000954 0.0002455003561999819
                    CHANNELS 3 Yrotation Xrotation Zrotation
                    JOINT rightMiddleDistal
                    {
                      OFFSET -0.20675694929999955 -0.012273788999999091 0.00030209124000002766
                      CHANNELS 3 Yrotation Xrotation Zrotation
                      End Site
                      {
                        OFFSET -0.20675694929999955 -0.012273788999999091 0.00030209124000002766
                      }
                    }
                  }
                }
                JOINT rightLittleProximal
                {
                  OFFSET -0.5346811737299992 -0.011214256288399227 -0.24363941305000003
                  CHANNELS 3 Yrotation Xrotation Zrotation
                  JOINT rightLittleIntermediate
                  {
                    OFFSET -0.21757715980000092 -0.011771559690000988 0.01201554387
                    CHANNELS 3 Yrotation Xrotation Zrotation
                    JOINT rightLittleDistal
                    {
                      OFFSET -0.1475201849000004 -0.00822055339600003 0.006082065407000015
                      CHANNELS 3 Yrotation Xrotation Zrotation
                      End Site
                      {
                        OFFSET -0.1475201849000004 -0.00822055339600003 0.006082065407000015
                      }
                    }
                  }
                }
                JOINT rightRingProximal
                {
                  OFFSET -0.5800810755299999 0.027657985680600072 -0.12066365025000003
                  CHANNELS 3 Yrotation Xrotation Zrotation
                  JOINT rightRingIntermediate
                  {
                    OFFSET -0.26166445029999974 -0.013623118409999302 0.011164098990000045
                    CHANNELS 3 Yrotation Xrotation Zrotation
                    JOINT rightRingDistal
                    {
                      OFFSET -0.17666387530000027 -0.009072900100000503 0.005668185599999959
                      CHANNELS 3 Yrotation Xrotation Zrotation
                      End Site
                      {
                        OFFSET -0.17666387530000027 -0.009072900100000503 0.005668185599999959
                      }
                    }
                  }
                }
                JOINT rightThumbProximal
                {
                  OFFSET -0.10997596379000074 -0.09577489355940072 0.16989765924999997
                  CHANNELS 3 Yrotation Xrotation Zrotation
                  JOINT rightThumbIntermediate
                  {
                    OFFSET -0.31036620999999986 -0.08229339117999834 0.15440884469999996
                    CHANNELS 3 Yrotation Xrotation Zrotation
                    JOINT rightThumbDistal
                    {
                      OFFSET -0.21631306399999906 -0.08825326400000111 0.018656797720000014
                      CHANNELS 3 Yrotation Xrotation Zrotation
                      End Site
                      {
                        OFFSET -0.21631306399999906 -0.08825326400000111 0.018656797720000014
                      }
                    }
                  }
                }
              }
            }
          }
        }
      }
    }
  }
}
MOTION
Frames: 10
Frame Time: 0.03333333333333333
0 11.682712981546562 0 0 0 0 0 0 -5.826343164929014 -0.3712483961610101 -3.6333298826370974 5.838118207697276 0 0 0 0 0 0 0 0 5.826343164929014 0.3712483961610101 -3.6333298826370974 -5.838118207697276 0 0 0 0 0 0 0 -4.610651315171937 0 0 3.0831277533083026 0 0 0 0 0 1.5275236235667615 0 0 0 0 0 0 0 0 0 0 0 0 0 0 0 0 0 0 0 0 0 0 0 0 0 0 0 0 0 0 0 0 0 0 0 0 0 0 0 0 0 0 0 0 0 0 0 0 0 0 0 0 0 0 0 0 1.5275236235667615 0 0 0 0 0 0 0 0 0 0 0 0 0 0 1.5275236235667615 0 0 0 0 0 0 0 0 0 0 0 0 0 0 0 0 0 0 0 0 0 0 0 0 0 0 0 0 0 0 0 0 0 0 0 0 0 0 0 0 0 0 0 0 0 0 0 0 0 0 0 0 0 0 0
5.366740723532839 0.04272670763057052 3.4335195134755794 0 18.99752136929611 0 73.56695959468615 -17.43874183853595 -28.828799727442927 -0.9991006288817011 5.408036003283164 8.400886174861979 -35.97226694796911 9.001778765735514 -7.23706409758969 0 0 0 -1.725168650556785 -30.579549946014197 4.6500057878887615 1.0971009547940096 0.7739793277847288 -12.294077956290739 -15.778741842506436 11.537066386738529 16.357414445917467 0 0 0 -0.07838919767378137 -12.946821324402771 -0.5303320831617024 -0.8349956523001925 20.732145535089945 -0.9836118419220656 0 0 0 5.753262950259677 11.145201320617753 7.4990898592300415 2.3223035828864034 0.7951444932051437 -76.83616132392058 17.340518037787984 5.985112138852711 -28.264862985090488 -24.411430006360717 5.5080655867861905 1.5928954592130224 0 0 0 0 0 0 0 0 0 0 0 0 0 0 0 0 0 0 0 0 0 0 0 0 0 0 0 0 0 0 0 0 0 0 0 0 0 0 0 0 0 0 0 0 0 0 -24.473973288823597 0 0 17.998348714436776 0 0 0 0 0 0 0 0 0 0 -8.092556895133507 12.770049859446814 1.8840752133321237 -2.991232836611909 3.811226975818682 74.4279084195557 -7.278041937711949 2.739975481384015 12.411786270121063 19.35204221157193 2.759812062245067 7.062208062834762 0 0 0 0 0 0 0 0 0 0 0 0 0 0 0 0 0 0 0 0 0 0 0 0 0 0 0 0 0 0 0 0 0 0 0 0 0 0 0 0 0 0 0 0 0
5.366740723532839 0.020422236315950183 3.4335195134755794 0 18.99752136929611 0 73.49277246461342 -18.06709021874489 -29.31695303107303 -0.9313714628413681 6.383672183228067 8.949382595193784 -35.55511162965919 8.464227769804438 -7.2341571789549235 0 0 0 -4.685958132772078 -31.396934724068554 5.940626449732742 0.9518055805570508 2.01040996680907 -12.585120884039135 -13.242805388482836 10.642615269250385 16.529108242124643 0 0 0 -0.07828973900391452 -12.61354281828971 -0.530763678954791 -0.8271973969105223 19.244023646403885 -0.9606623633233308 0 0 0 5.861436907263469 12.037590592294308 8.038222396358057 2.3223035828864034 0.7951444932051437 -76.83616132392058 17.703706900620517 6.183868973470632 -29.081820330258402 -24.583416369043565 5.979492304818634 1.930850537528375 0 0 0 0 0 0 0 0 0 0 0 0 0 0 0 0 0 0 0 0 0 0 0 0 0 0 0 0 0 0 0 0 0 0 0 0 0 0 0 0 0 0 0 0 0 0 -24.473973288823597 0 0 17.998350509841448 0 0 0 0 0 0 0 0 0 0 -8.143901822504787 13.662740287292497 1.0888365205959716 -2.9895606920594053 3.801995245029562 74.43594155113635 -7.959544222178892 2.8606519553616074 13.367293251519072 19.742869961388283 3.1640433492563105 6.634295336094034 0 0 0 0 0 0 0 0 0 0 0 0 0 0 0 0 0 0 0 0 0 0 0 0 0 0 0 0 0 0 0 0 0 0 0 0 0 0 0 0 0 0 0 0 0
5.366740723532839 -0.0018819666063980957 3.4335195134755794 0 18.99752136929611 0 73.42389912278492 -18.69653019194953 -29.80641245211043 -0.8539640975122914 7.3601132387988795 9.501013332523078 -35.138316269845916 7.926365131711329 -7.235208931842512 0 0 0 -7.717146305082167 -32.161395815938015 7.301369502060994 0.7997658918117683 3.2485664973159896 -12.880188303763225 -10.69988575032078 9.735558608741828 16.66073380181197 0 0 0 -0.07819207608951556 -12.280219617475131 -0.5311952818295913 -0.8200727188457804 17.751819098444834 -0.9380622884208742 0 0 0 5.978754775450205 12.930116599803755 8.581661590817165 2.3223035828864034 0.7951444932051437 -76.83616132392058 18.064544184305333 6.387979301068951 -29.898720339185928 -24.752826960745143 6.452135907359811 2.2678389428902674 0 0 0 0 0 0 0 0 0 0 0 0 0 0 0 0 0 0 0 0 0 0 0 0 0 0 0 0 0 0 0 0 0 0 0 0 0 0 0 0 0 0 0 0 0 0 -24.47397704105819 0 0 17.998348714436776 0 0 0 0 0 0 0 0 0 0 -8.208361891224289 14.556194476259384 0.28825910467090526 -2.98788797757467 3.7927619017927006 74.44398202341463 -8.640228410883198 2.99290220729279 14.323115549554815 20.131064549898397 3.571427439622349 6.208709024876512 0 0 0 0 0 0 0 0 0 0 0 0 0 0 0 0 0 0 0 0 0 0 0 0 0 0 0 0 0 0 0 0 0 0 0 0 0 0 0 0 0 0 0 0 0
5.366740723532839 -0.024186169528748757 3.4335195134755794 0 18.99752317520655 0 73.36045196340062 -19.32694931715669 -30.297296518904307 -0.7667539794593923 8.3370787561717 10.056021823614048 -34.72181982388147 7.388258447395984 -7.240205783372242 0 0 0 -10.815162815397404 -32.86775085903667 8.729370329388116 0.6408253174613419 4.488102554360209 -13.179508914856351 -8.151503881111934 8.818539243241567 16.751556952082005 0 0 0 -0.07809728507650229 -11.946857214855475 -0.5316258546655733 -0.8136039114792397 16.25602666910501 -0.9157826640450257 0 0 0 6.105369713948677 13.822538683678191 9.129631503751835 2.3223035828864034 0.7951444932051437 -76.83616132392058 18.422909215247024 6.5973841245419935 -30.715429484994797 -24.919664853004925 6.925952333325569 2.6038802943828756 0 0 0 0 0 0 0 0 0 0 0 0 0 0 0 0 0 0 0 0 0 0 0 0 0 0 0 0 0 0 0 0 0 0 0 0 0 0 0 0 0 0 0 0 0 0 -24.47397516494088 0 0 17.998350509841448 0 0 0 0 0 0 0 0 0 0 -8.286168998993615 15.450050125046657 -0.5179417842441835 -2.9862178271259494 3.7835260902815246 74.45199319252387 -9.319760622855053 3.1366977011323085 15.278912713211978 20.51661450842623 3.981897329751177 5.785465999434318 0 0 0 0 0 0 0 0 0 0 0 0 0 0 0 0 0 0 0 0 0 0 0 0 0 0 0 0 0 0 0 0 0 0 0 0 0 0 0 0 0 0 0 0 0
5.366740723532839 -0.04649037245109465 3.4335195134755794 0 18.99752136929611 0 73.30242933410707 -19.95824663082423 -30.78964592938726 -0.6696081368930124 9.314286564967896 10.614653659114754 -34.305606721203596 6.849974770032074 -7.24914526034488 0 0 0 -13.975388394473397 -33.510984469381654 10.220724496280505 0.4748163599292888 5.728658385557403 -13.483325228265388 -5.599175760226257 7.894303085384494 16.801043933237484 0 0 0 -0.07800637929347005 -11.613459310158547 -0.5320551724142148 -0.8077718283631046 14.757148241581548 -0.8937933041624356 0 0 0 6.241445602517132 14.71462325908977 9.682363785846722 2.3223035828864034 0.7951444932051437 -76.83616132392058 18.778684092852714 6.81202062949721 -31.531842393135392 -25.083923824033253 7.400891788954072 2.9389922764000267 0 0 0 0 0 0 0 0 0 0 0 0 0 0 0 0 0 0 0 0 0 0 0 0 0 0 0 0 0 0 0 0 0 0 0 0 0 0 0 0 0 0 0 0 0 0 -24.473971412706344 0 0 17.998348714436776 0 0 0 0 0 0 0 0 0 0 -8.377545946681442 16.34391736508273 -1.3300566547302555 -2.9845487450252737 3.774291232852746 74.4600256232937 -9.997807404223932 3.2920006060903115 16.2343592435157 20.89949039529243 4.395386862266207 5.364579916741596 0 0 0 0 0 0 0 0 0 0 0 0 0 0 0 0 0 0 0 0 0 0 0 0 0 0 0 0 0 0 0 0 0 0 0 0 0 0 0 0 0 0 0 0 0
5.366740723532839 -0.06879457537344531 3.4335195134755794 0 18.99752136929611 0 73.24996841329396 -20.590307189337917 -31.28358790470679 -0.5623915623406655 10.291448767166228 11.177159178266352 -33.889594343548225 6.311577239984572 -7.262009948892444 0 0 0 -17.192165205374643 -34.086459199706724 11.770473722392335 0.3015593745534584 6.969879265235793 -13.791886141942447 -3.0444066740911664 6.965668087984674 16.80886909762299 0 0 0 -0.0779163720402194 -11.280035658030506 -0.5324827491483833 -0.8025592486049054 13.255682191244578 -0.8720659287244734 0 0 0 6.387149535507355 15.606122052427928 10.240088613268808 2.3223035828864034 0.7951444932051437 -76.83616132392058 19.131747707592545 7.03182175739092 -32.34783129357931 -25.245615613420114 7.876918939277937 3.2732019225289877 0 0 0 0 0 0 0 0 0 0 0 0 0 0 0 0 0 0 0 0 0 0 0 0 0 0 0 0 0 0 0 0 0 0 0 0 0 0 0 0 0 0 0 0 0 0 -24.473973288823597 0 0 17.998348714436776 0 0 0 0 0 0 0 0 0 0 -8.482733376933156 17.237418280384258 -2.148388725021848 -2.9828809800795293 3.76505732923599 74.46805128851358 -10.674033518026132 3.4587544623990043 17.189130798558026 21.279683105707942 4.8118262092004604 4.9460658605331265 0 0 0 0 0 0 0 0 0 0 0 0 0 0 0 0 0 0 0 0 0 0 0 0 0 0 0 0 0 0 0 0 0 0 0 0 0 0 0 0 0 0 0 0 0
5.366740723532839 -0.09109904668806326 3.4335195134755794 0 18.99752136929611 0 73.20311409340223 -21.2230254462229 -31.779194995682484 -0.44495573913110215 11.268275955961206 11.743795218071789 -33.47376661775983 5.773136322687292 -7.278798202609515 0 0 0 -20.458754011123933 -34.58992644394634 13.372584677175107 0.12086524865434961 8.211399570880896 -14.105448602885005 -0.48871704348684336 6.035512102068337 16.774931712030057 0 0 0 -0.07783013425527112 -10.946588121515388 -0.5329101883134398 -0.797953554559194 11.75214037612778 -0.8505754535896509 0 0 0 6.542653949838379 16.49679519859413 10.803053629891908 2.3223035828864034 0.7951444932051437 -76.83616132392058 19.481987064851225 7.256714484396542 -33.16328994597737 -25.40472457300245 8.353978872358235 3.6065233217712342 0 0 0 0 0 0 0 0 0 0 0 0 0 0 0 0 0 0 0 0 0 0 0 0 0 0 0 0 0 0 0 0 0 0 0 0 0 0 0 0 0 0 0 0 0 0 -24.473973288823597 0 0 17.998348714436776 0 0 0 0 0 0 0 0 0 0 -8.60197224533972 18.130168230276873 -2.9732429336157473 -2.9812144966384158 3.755823523549774 74.47608411048351 -11.348115931804688 3.636887885702656 18.142897163771437 21.657177674379632 5.2311469821562335 4.529937805426005 0 0 0 0 0 0 0 0 0 0 0 0 0 0 0 0 0 0 0 0 0 0 0 0 0 0 0 0 0 0 0 0 0 0 0 0 0 0 0 0 0 0 0 0 0
5.366740723532839 -0.11340324961041393 3.4335195134755794 0 18.99752136929611 0 73.16195456587668 -21.856290581089436 -32.27656371018269 -0.31714546659238535 12.244472770623997 12.314820877627506 -33.05806819801251 5.234713974122741 -7.299498554009095 0 0 0 -23.767434507007216 -35.01769221645563 15.020026775404924 -0.06746938685675981 9.45285643617019 -14.424279577858695 2.066372886605694 5.106733701217799 16.699324694523128 0 0 0 -0.07774671252999829 -10.61312548617757 -0.5333366430773334 -0.7939396851805315 10.24704126137713 -0.8292947267101792 0 0 0 6.708145324791986 17.386390220780243 11.371503540778479 2.3223035828864034 0.7951444932051437 -76.83616132392058 19.829289045260758 7.4866245509324125 -33.97811224716176 -25.56124016620626 8.832025462450884 3.938979680228364 0 0 0 0 0 0 0 0 0 0 0 0 0 0 0 0 0 0 0 0 0 0 0 0 0 0 0 0 0 0 0 0 0 0 0 0 0 0 0 0 0 0 0 0 0 0 -24.473973288823597 0 0 17.998348714436776 0 0 0 0 0 0 0 0 0 0 -8.735506920255151 19.02176025908567 -3.804933430443783 -2.9795491164756167 3.7465872487444862 74.48410338939424 -12.019721652433333 3.826314210938122 19.095335872446764 22.03195088279114 5.653280710271804 4.116204311440959 0 0 0 0 0 0 0 0 0 0 0 0 0 0 0 0 0 0 0 0 0 0 0 0 0 0 0 0 0 0 0 0 0 0 0 0 0 0 0 0 0 0 0 0 0
5.366740723532839 -0.1357074525327622 3.4335195134755794 0 18.99752317520655 0 73.12652528020179 -22.489999171230014 -32.775774707446296 -0.17880148802881388 13.219748261621215 12.890508914157634 -32.642454108812494 4.696381731437059 -7.324105913325923 0 0 0 -27.10955760984269 -35.36666841816791 16.704842193579783 -0.2636574625421022 10.693876499831717 -14.748656024805415 4.619335340347052 4.182232233872876 16.582386481564804 0 0 0 -0.0776650972784173 -10.279648673051783 -0.5337622464388173 -0.7905069902738522 8.740899142133925 -0.8081991181858132 0 0 0 6.883809416170562 18.274656386876845 11.94568951881318 2.3223035828864034 0.7951444932051437 -76.83616132392058 20.17353478682582 7.721472156849631 -34.792174322881394 -25.715180100513916 9.311020523029196 4.270594895258499 0 0 0 0 0 0 0 0 0 0 0 0 0 0 0 0 0 0 0 0 0 0 0 0 0 0 0 0 0 0 0 0 0 0 0 0 0 0 0 0 0 0 0 0 0 0 -24.47397516494088 0 0 17.998350509841448 0 0 0 0 0 0 0 0 0 0 -8.883595823659363 19.911803473162845 -4.643782039246778 -2.977885053173277 3.7373519270312126 74.49212836079678 -12.688536710571201 4.026935842244566 20.046132999054883 22.40399196380464 6.078158384298845 3.70487844006973 0 0 0 0 0 0 0 0 0 0 0 0 0 0 0 0 0 0 0 0 0 0 0 0 0 0 0 0 0 0 0 0 0 0 0 0 0 0 0 0 0 0 0 0 0
